<svg width="17" height="19" viewBox="0 0 17 19" fill="none" xmlns="http://www.w3.org/2000/svg">
<path d="M13 2.24988C13 1.17088 11.726 0.599884 10.92 1.31588L6.427 5.30888C6.28986 5.43106 6.11266 5.49866 5.929 5.49888H2.25C1.65326 5.49888 1.08097 5.73594 0.65901 6.15789C0.237053 6.57985 0 7.15215 0 7.74888V12.2459C0 12.8426 0.237053 13.4149 0.65901 13.8369C1.08097 14.2588 1.65326 14.4959 2.25 14.4959H5.93C6.11366 14.4961 6.29086 14.5637 6.428 14.6859L10.919 18.6799C11.725 19.3959 13 18.8239 13 17.7459V2.24988V2.24988ZM7.425 6.42988L11.5 2.80688V17.1889L7.425 13.5649C7.01319 13.1985 6.48121 12.996 5.93 12.9959H2.25C2.05109 12.9959 1.86032 12.9169 1.71967 12.7762C1.57902 12.6356 1.5 12.4448 1.5 12.2459V7.74988C1.5 7.55097 1.57902 7.36021 1.71967 7.21955C1.86032 7.0789 2.05109 6.99988 2.25 6.99988H5.93C6.48121 6.99974 7.01319 6.79727 7.425 6.43088V6.42988Z" fill="#B3B3B3"/>
<path d="M15.143 6.36978C15.2296 6.32281 15.3246 6.29336 15.4226 6.28312C15.5206 6.27287 15.6196 6.28204 15.7141 6.31008C15.8085 6.33813 15.8965 6.3845 15.973 6.44657C16.0495 6.50863 16.1131 6.58515 16.16 6.67178C16.696 7.66178 17 8.79678 17 9.99978C17.0017 11.1618 16.7129 12.3058 16.16 13.3278C16.0653 13.5028 15.905 13.6331 15.7143 13.6899C15.5235 13.7467 15.3181 13.7255 15.143 13.6308C14.968 13.5361 14.8377 13.3758 14.7809 13.185C14.7241 12.9943 14.7453 12.7888 14.84 12.6138C15.26 11.8368 15.5 10.9478 15.5 9.99978C15.5 9.05178 15.26 8.16278 14.84 7.38578C14.7931 7.29911 14.7637 7.20405 14.7535 7.10603C14.7433 7.008 14.7526 6.90893 14.7807 6.81448C14.8089 6.72003 14.8554 6.63205 14.9175 6.55557C14.9797 6.4791 15.0563 6.41562 15.143 6.36878V6.36978Z" fill="#B3B3B3"/>
</svg>
