<svg width="24" height="22" viewBox="0 0 24 22" fill="none" xmlns="http://www.w3.org/2000/svg">
<path d="M11.4152 2.33633L12.0239 2.80628L12.6344 2.33859C13.8922 1.37502 15.4344 0.913569 16.9832 1.0298C18.5305 1.14591 19.9938 1.83179 21.1074 2.97377C21.7121 3.61053 22.1917 4.36682 22.5171 5.20025C22.8433 6.03558 23.0076 6.93076 22.9997 7.83402C22.9919 8.73727 22.8121 9.62914 22.4716 10.4581C22.1311 11.2869 21.6372 12.0354 21.0198 12.6614L21.0143 12.667L21.0088 12.6727L13.805 20.2119C13.8045 20.2125 13.804 20.213 13.8034 20.2136C13.3123 20.7218 12.6552 21 11.9782 21C11.3013 21 10.6441 20.7218 10.153 20.2136C10.1525 20.213 10.1519 20.2125 10.1514 20.2119L2.94759 12.6727L2.94761 12.6727L2.94229 12.6672C1.7662 11.4551 1.07039 9.81841 1.00505 8.08477C0.939711 6.35105 1.51028 4.66142 2.5931 3.35577C3.67504 2.05116 5.18572 1.22842 6.8167 1.04097C8.44724 0.85357 10.09 1.31335 11.4152 2.33633Z" stroke="white" stroke-width="2"/>
</svg>
