<svg width="26" height="22" viewBox="0 0 26 22" fill="none" xmlns="http://www.w3.org/2000/svg">
<path d="M1 18.5H2.65285C3.82482 18.5 4.93783 17.986 5.69782 17.0939L11.0687 10.7889L14.8022 6.40614C15.5622 5.51398 16.6752 5 17.8472 5H23.5M23.5 5L19.5 1M23.5 5L19.5 9M1 3.5H2.82597C3.97281 3.5 5.06448 3.99225 5.82376 4.85175L8.96427 8.40676M24.3333 17H18.3592C17.2124 17 16.1207 16.5077 15.3614 15.6483L13.5 13.5411M24.3333 17L20.1852 21M24.3333 17L20.1852 13" stroke="white" stroke-width="2" stroke-linecap="round" stroke-linejoin="round"/>
</svg>
