<svg width="31" height="31" viewBox="0 0 31 31" fill="none" xmlns="http://www.w3.org/2000/svg">
<path d="M0.186035 5.5719C0.186035 2.81048 2.42461 0.571899 5.18604 0.571899H25.3854C28.1468 0.571899 30.3854 2.81048 30.3854 5.5719V25.6209C30.3854 28.3823 28.1468 30.6209 25.3854 30.6209H5.18603C2.42461 30.6209 0.186035 28.3823 0.186035 25.6209V5.5719Z" fill="url(#paint0_linear_165_499)"/>
<g clip-path="url(#clip0_165_499)">
<path d="M17.7501 10.4586C17.1871 10.4674 16.6363 10.6245 16.1535 10.9143C15.6706 11.204 15.2728 11.616 15.0001 12.1086C14.7274 11.616 14.3296 11.204 13.8467 10.9143C13.3639 10.6245 12.8131 10.4674 12.2501 10.4586C11.3526 10.4976 10.507 10.8902 9.89799 11.5507C9.28903 12.2112 8.96623 13.0859 9.0001 13.9836C9.0001 17.3711 14.4781 21.2836 14.7111 21.4496L15.0001 21.6541L15.2891 21.4496C15.5221 21.2846 21.0001 17.3711 21.0001 13.9836C21.034 13.0859 20.7112 12.2112 20.1022 11.5507C19.4932 10.8902 18.6476 10.4976 17.7501 10.4586V10.4586Z" fill="white"/>
</g>
<defs>
<linearGradient id="paint0_linear_165_499" x1="0.186035" y1="0.571899" x2="30.2347" y2="30.7709" gradientUnits="userSpaceOnUse">
<stop stop-color="#4000F4"/>
<stop offset="0.224829" stop-color="#603AED"/>
<stop offset="0.469313" stop-color="#7C6EE6"/>
<stop offset="0.657091" stop-color="#979FE1"/>
<stop offset="0.77684" stop-color="#A2B3DE"/>
<stop offset="0.889332" stop-color="#ADC8DC"/>
<stop offset="1" stop-color="#C0ECD7"/>
</linearGradient>
<clipPath id="clip0_165_499">
<path d="M9 11C9 10.4477 9.44772 10 10 10H20C20.5523 10 21 10.4477 21 11V21C21 21.5523 20.5523 22 20 22H10C9.44772 22 9 21.5523 9 21V11Z" fill="white"/>
</clipPath>
</defs>
</svg>
