<svg width="25" height="27" viewBox="0 0 25 27" fill="none" xmlns="http://www.w3.org/2000/svg">
<g clip-path="url(#clip0_89_486)">
<path d="M12.2857 15.3904C11.4848 15.3904 10.7167 15.7334 10.1503 16.3439C9.58398 16.9544 9.26581 17.7824 9.26581 18.6457V26.2697H15.3057V18.6457C15.3057 17.7824 14.9875 16.9544 14.4212 16.3439C13.8548 15.7334 13.0867 15.3904 12.2857 15.3904Z" fill="white"/>
<path d="M13.6326 1.10338C13.2629 0.744681 12.7831 0.546204 12.2857 0.546204C11.7883 0.546204 11.3085 0.744681 10.9388 1.10338L0.205994 11.516V22.8011C0.205994 23.722 0.545376 24.6052 1.14948 25.2564C1.75358 25.9076 2.57292 26.2734 3.42726 26.2734H7.25251V18.6462C7.25251 17.2073 7.78279 15.8273 8.7267 14.8098C9.67061 13.7923 10.9508 13.2207 12.2857 13.2207C13.6206 13.2207 14.9008 13.7923 15.8448 14.8098C16.7887 15.8273 17.3189 17.2073 17.3189 18.6462V26.2702H21.1442C21.9985 26.2702 22.8179 25.9044 23.422 25.2532C24.0261 24.602 24.3655 23.7188 24.3655 22.7979V11.5128L13.6326 1.10338Z" fill="white"/>
</g>
<defs>
<clipPath id="clip0_89_486">
<rect width="24.1595" height="26.0425" fill="white" transform="translate(0.205994 0.199341)"/>
</clipPath>
</defs>
</svg>
