<svg width="25" height="25" viewBox="0 0 25 25" fill="none" xmlns="http://www.w3.org/2000/svg">
<g clip-path="url(#clip0_89_489)">
<path d="M24.3655 22.9063L18.0618 16.6341C19.6993 14.6414 20.5043 12.0988 20.3105 9.53205C20.1167 6.96533 18.9389 4.57093 17.0206 2.8441C15.1023 1.11727 12.5903 0.190144 10.0043 0.25448C7.41829 0.318817 4.95604 1.3697 3.12688 3.18976C1.29772 5.00982 0.241579 7.4598 0.17692 10.0329C0.112262 12.6061 1.04403 15.1055 2.7795 17.0143C4.51496 18.923 6.92134 20.095 9.5009 20.2879C12.0805 20.4807 14.6358 19.6797 16.6385 18.0504L22.9421 24.3226L24.3655 22.9063ZM10.2724 18.3128C8.67967 18.3128 7.12267 17.8429 5.79834 16.9624C4.474 16.0819 3.44181 14.8304 2.83229 13.3662C2.22276 11.902 2.06328 10.2909 2.37402 8.73647C2.68475 7.18209 3.45174 5.75429 4.57799 4.63365C5.70425 3.513 7.13918 2.74983 8.70134 2.44064C10.2635 2.13145 11.8827 2.29014 13.3542 2.89663C14.8258 3.50312 16.0835 4.53018 16.9684 5.84792C17.8533 7.16566 18.3256 8.71491 18.3256 10.2997C18.3232 12.4242 17.474 14.461 15.9642 15.9632C14.4545 17.4654 12.4075 18.3104 10.2724 18.3128Z" fill="white"/>
</g>
<defs>
<clipPath id="clip0_89_489">
<rect width="24.1595" height="24.0392" fill="white" transform="translate(0.205994 0.282654)"/>
</clipPath>
</defs>
</svg>
